squats_1_grf
version=1
nRows=12
nColumns=19
inDegrees=no
endheader
time	ground_force_right_vx	ground_force_right_vy	ground_force_right_vz	ground_force_right_px	ground_force_right_py	ground_force_right_pz	ground_force_right_mx	ground_force_right_my	ground_force_right_mz	ground_force_left_vx	ground_force_left_vy	ground_force_left_vz	ground_force_left_px	ground_force_left_py	ground_force_left_pz	ground_force_left_mx	ground_force_left_my	ground_force_left_mz
     30.67500000	     14.86799164	    468.03348781	     63.43542008	     -3.44803386	      0.00749702	      2.27188114	     -0.03257751	     11.17651536	      0.05060448	    -17.34027418	    391.43289493	    -44.34776154	     -3.42231108	      0.00823542	      2.74380313	      0.02567126	     -7.72647480	      0.01341685
     30.67600000	     15.05389807	    468.20543274	     63.14423881	     -3.44820872	      0.00749635	      2.27191693	     -0.03270202	     11.21923044	      0.05079788	    -17.25907384	    392.44012504	    -44.34786345	     -3.42240709	      0.00823500	      2.74374621	      0.02576556	     -7.75485861	      0.01346614
     30.67700000	     15.22276765	    468.37497096	     62.85175984	     -3.44838069	      0.00749568	      2.27195282	     -0.03282708	     11.26213445	      0.05099214	    -17.18564354	    393.47490914	    -44.35124451	     -3.42249982	      0.00823460	      2.74368982	      0.02586312	     -7.78422140	      0.01351713
     30.67800000	     15.37415201	    468.54060229	     62.55943534	     -3.44854991	      0.00749503	      2.27198853	     -0.03295240	     11.30513124	      0.05118682	    -17.12045674	    394.53501487	    -44.35798828	     -3.42258958	      0.00823420	      2.74363411	      0.02596376	     -7.81451317	      0.01356973
     30.67900000	     15.50772247	    468.70083472	     62.26870564	     -3.44871651	      0.00749438	      2.27202377	     -0.03307772	     11.34812468	      0.05138148	    -17.06389964	    395.61807899	    -44.36819601	     -3.42267667	      0.00823382	      2.74357924	      0.02606731	     -7.84567922	      0.01362385
     30.68000000	     15.62327013	    468.85420395	     61.98098883	     -3.44888067	      0.00749375	      2.27205827	     -0.03320275	     11.39101944	      0.05157570	    -17.01626660	    396.72162516	    -44.38198445	     -3.42276143	      0.00823344	      2.74352537	      0.02617357	     -7.87766052	      0.01367939
     30.68100000	     15.72070492	    468.99929240	     61.69767032	     -3.44904254	      0.00749312	      2.27209176	     -0.03332722	     11.43372173	      0.05176905	    -16.97775681	    397.84308173	    -44.39948335	     -3.42284420	      0.00823308	      2.74347267	      0.02628233	     -7.91039405	      0.01373623
     30.68200000	     15.80005373	    469.13474755	     61.42009253	     -3.44920231	      0.00749251	      2.27212397	     -0.03345086	     11.47614006	      0.05196111	    -16.94847238	    398.97979940	    -44.42083275	     -3.42292534	      0.00823272	      2.74342129	      0.02639337	     -7.94381328	      0.01379426
     30.68300000	     15.86145751	    469.25929922	     61.14954478	     -3.44936015	      0.00749191	      2.27215466	     -0.03357342	     11.51818593	      0.05215148	    -16.92841784	    400.12906837	    -44.44618006	     -3.42300518	      0.00823237	      2.74337139	      0.02650645	     -7.97784852	      0.01385336
     30.68400000	     15.90516754	    469.37177577	     60.88725370	     -3.44951625	      0.00749133	      2.27218358	     -0.03369464	     11.55977450	      0.05233978	    -16.91750102	    401.28813513	    -44.47567710	     -3.42308410	      0.00823202	      2.74332313	      0.02662134	     -8.01242740	      0.01391340
     30.68500000	     15.93154082	    469.47111880	     60.63437403	     -3.44967080	      0.00749075	      2.27221053	     -0.03381430	     11.60082521	      0.05252565	    -16.91553527	    402.45421857	    -44.50947712	     -3.42316244	      0.00823168	      2.74327665	      0.02673778	     -8.04747526	      0.01397426
     30.68600000	     15.94103463	    469.55639617	     60.39198011	     -3.44982397	      0.00749020	      2.27223529	     -0.03393217	     11.64126236	      0.05270874	    -16.92224293	    403.62452540	    -44.54773188	     -3.42324056	      0.00823134	      2.74323211	      0.02685553	     -8.08291567	      0.01403581
